<svg width="50" height="50" viewBox="0 0 50 50" fill="none" xmlns="http://www.w3.org/2000/svg">
<g clip-path="url(#clip0)">
<path d="M0 5C0 2.23858 2.23858 0 5 0H45C47.7614 0 50 2.23858 50 5V45C50 47.7614 47.7614 50 45 50H5C2.23858 50 0 47.7614 0 45V5Z" fill="#39BA44"/>
<path d="M48.5604 11.0473C52.4942 10.7022 58.3948 17.8071 60.8534 21.4026C65.7706 23.892 60.8534 21.4026 67 28.7376C65.1561 37.7985 60.8534 39.9559 57.1656 39.9559C53.4779 39.9559 54.707 28.7376 48.5604 28.7376C42.4138 28.7376 43.6434 39.0929 36.8821 39.9559C30.1208 40.8188 31 30.0321 25.2038 30.0321C19.4076 30.0321 20.2867 39.9559 14.1401 39.9559C7.9935 39.9559 9.30908 31.4811 4.92039 30.0321C1 28.7376 -2.66032 35.4974 -4.91399 39.9559C-5.73352 33.7715 -6.88086 21.4026 -4.91399 21.4026C-2.45539 21.4026 0.617849 10.1844 4.92039 11.0473C9.22293 11.9103 7.28022 21.4026 14.1401 21.4026C21 21.4026 20.2866 11.0473 25.2038 11.0473C30.121 11.0473 31.2642 21.4026 36.8821 21.4026C42.5 21.4026 43.6432 11.4788 48.5604 11.0473Z" fill="#81CE54" stroke="#81CE54" stroke-width="2.5"/>
</g>
<defs>
<clipPath id="clip0">
<path d="M0 5C0 2.23858 2.23858 0 5 0H45C47.7614 0 50 2.23858 50 5V45C50 47.7614 47.7614 50 45 50H5C2.23858 50 0 47.7614 0 45V5Z" fill="white"/>
</clipPath>
</defs>
</svg>
