<svg width="50" height="50" viewBox="0 0 50 50" fill="none" xmlns="http://www.w3.org/2000/svg">
<g clip-path="url(#clip0)">
<path d="M0 5C0 2.23858 2.23858 0 5 0H45C47.7614 0 50 2.23858 50 5V45C50 47.7614 47.7614 50 45 50H5C2.23858 50 0 47.7614 0 45V5Z" fill="#39BA44"/>
<path d="M38.9578 43.5604C39.303 47.4942 32.1981 53.3948 28.6025 55.8534C26.1131 60.7706 28.6025 55.8534 21.2675 62C12.2066 60.1561 10.0492 55.8534 10.0492 52.1656C10.0492 48.4779 21.2675 49.707 21.2675 43.5604C21.2675 37.4138 10.9122 38.6434 10.0492 31.8821C9.1863 25.1208 19.9731 26 19.9731 20.2038C19.9731 14.4076 10.0492 15.2867 10.0492 9.14011C10.0492 2.9935 18.524 4.30907 19.9731 -0.0796126C21.2675 -4 14.5078 -7.66032 10.0492 -9.91399C16.2337 -10.7335 28.6025 -11.8809 28.6025 -9.91399C28.6025 -7.45539 39.8207 -4.38215 38.9578 -0.0796118C38.0948 4.22293 28.6025 2.28022 28.6025 9.14011C28.6025 16 38.9578 15.2866 38.9578 20.2038C38.9578 25.121 28.6025 26.2642 28.6025 31.8821C28.6025 37.5 38.5263 38.6432 38.9578 43.5604Z" fill="#81CE54" stroke="#81CE54" stroke-width="2.5"/>
</g>
<defs>
<clipPath id="clip0">
<path d="M0 5C0 2.23858 2.23858 0 5 0H45C47.7614 0 50 2.23858 50 5V45C50 47.7614 47.7614 50 45 50H5C2.23858 50 0 47.7614 0 45V5Z" fill="white"/>
</clipPath>
</defs>
</svg>
