<svg width="50" height="50" viewBox="0 0 50 50" fill="none" xmlns="http://www.w3.org/2000/svg">
<g clip-path="url(#clip0)">
<path d="M16.5 12C20.2784 12.2699 22.4943 13.1262 23.5187 13.4087C23.834 13.4956 24.1595 13.5534 24.4859 13.574C26.4119 13.6956 28.8961 12 33.4999 12C38.4999 12 42.9392 17.318 43.9999 20.5C45.5 25 45.0001 33 41.4999 39.5C38.081 45.8491 34.0001 50 29.5001 49C24.5948 47.9099 24 47.5 20.9999 48.5C17.9998 49.5 12.9999 49.5 7.99992 41.5C2.99991 33.5 2.99988 32.5178 3 25.5C3.00012 18.5 9.5 11.5 16.5 12Z" fill="#F13434" stroke="#F13434" stroke-width="0.5"/>
<path d="M32.9833 10.3422C30.49 9.27504 27.6176 7.76859 26.5544 7.2011C26.4377 7.1388 26.4819 6.96501 26.6141 6.962C27.2301 6.94803 29.4104 6.52655 30.6782 6.19782C31.1822 6.06714 31.6169 5.76118 32.0884 5.54031C33.8885 4.69701 37.3382 4.95637 38.1852 4.93716C38.9593 4.9196 40.1137 4.59968 40.5942 4.44192C41.7699 4.05586 43.8914 2.76887 45.1424 1.57868C45.6392 1.10595 46.038 1.02648 45.8054 1.67162C45.1438 3.50639 42.9596 7.58717 42.1355 8.37226C40.2402 10.1776 36.8936 12.0159 32.9833 10.3422Z" fill="#C7F492" stroke="#C7F492" stroke-width="0.5"/>
<path d="M26.2022 6.47634C25.9281 5.79543 26.2821 3.93895 29.7955 1.46777C30.4652 1.01375 32.3995 0.117021 34.7786 0.162249C37.1577 0.207477 38.7379 0.548684 39.2306 0.713634C40.3712 1.27723 42.9615 2.05715 45.2015 1.29333C45.5052 1.18976 45.711 1.0581 45.798 0.994399C45.8617 0.938396 45.8593 0.949561 45.798 0.994399C45.7548 1.03241 45.6811 1.10137 45.5747 1.21176C45.3465 1.44848 45.0465 1.77501 44.6561 2.21703C42.6292 4.51225 37.6549 5.35119 34.1854 5.28523C31.6338 5.23672 28.1685 6.22272 26.5898 6.84598C26.4154 6.91481 26.2236 6.78531 26.2272 6.5979C26.228 6.55609 26.2178 6.51514 26.2022 6.47634Z" fill="#A3E261" stroke="#A3E261" stroke-width="0.5"/>
<path d="M24.0997 17.7188C23.8714 18.6319 23.5237 18.7199 23.2052 18.5032C22.6615 18.1333 22.5997 17.3764 22.5996 16.7188C22.5996 15.7188 22.4996 13.4187 22.0996 12.2188C21.5996 10.7188 20.5997 8.71875 20.0997 7.71875C19.9364 7.3921 19.9898 7.10991 20.1442 6.87899C20.5757 6.23373 21.496 6.29427 21.8763 6.97095C22.3129 7.74768 22.8007 8.92367 23.092 9.69823C23.0972 9.71212 23.0997 9.72635 23.0997 9.74119C23.0997 9.86888 23.2703 9.91295 23.3329 9.80169C25.6316 5.71926 26.1156 5.7347 26.5997 6.21875C27.1253 6.74436 26.871 7.54538 26.4448 8.15433L24.9654 10.2677C24.1014 11.502 23.8727 13.0566 24.0891 14.5476C24.2493 15.651 24.3165 16.8514 24.0997 17.7188Z" fill="#B25719" stroke="#B25719" stroke-width="0.2"/>
<path d="M27.2786 12.7556C34.1848 10.8705 38.9779 12.9335 40.6174 14.5521C40.8966 14.8278 41.1617 15.1186 41.4416 15.3936C43.6908 17.6024 46.3395 23.3201 44.4758 31.6654C42.6349 39.9082 38.6628 44.4495 36.5073 46.0125C36.1974 46.2372 35.8404 46.3805 35.4669 46.464C30.8833 47.4883 26.3502 46.8157 24.5998 46.3299C15.3455 44.7603 13.1354 37.3543 13.1623 33.5269C13.1639 33.2973 13.1551 33.0647 13.1296 32.8365C12.2765 25.2218 15.8111 20.3047 18.6157 18.0279C19.5186 17.295 20.7471 17.2636 21.8635 17.5894C24.9446 18.4885 26.6037 18.1114 27.4136 17.4051C28.085 16.8197 27.356 15.9895 26.4652 15.9895C25.9213 15.9895 25.3472 15.7155 25.3219 15.1722C25.2916 14.5204 25.6621 13.898 26.0638 13.4461C26.3797 13.0908 26.82 12.8808 27.2786 12.7556Z" fill="#F94848" stroke="#F94848" stroke-width="0.5"/>
<ellipse cx="38.5" cy="23.8169" rx="2.94421" ry="4.59125" transform="rotate(-7.24886 38.5 23.8169)" fill="#FC8181"/>
</g>
<defs>
<clipPath id="clip0">
<path d="M0 5C0 2.23858 2.23858 0 5 0H45C47.7614 0 50 2.23858 50 5V45C50 47.7614 47.7614 50 45 50H5C2.23858 50 0 47.7614 0 45V5Z" fill="white"/>
</clipPath>
</defs>
</svg>
